# xmcd CD database file
#
# Track frame offsets:
#	150
#	14822
#	28180
#	44632
#	60889
#	75208
#	90256
#	105403
#	120719
#	137694
#	155911
#	171615
#	189033
#	209095
#
# Disc length: 2973 seconds
#
# Revision: 0
# Processed by: cddbd v1.5.1PL0 Copyright (c) Steve Scherf et al.
# Submitted via: CDex 1.51
#
DISCID=b90b9b0e
DTITLE=Vários - Clube da Viola - Vol.4
DYEAR=2002
DGENRE=Sertanejo
TTITLE0=Mariquinha - Fred and Pedrito
TTITLE1=Que saudade de você - João Pedro and Cristiano
TTITLE2=Meu grande amor - Guilherme and Gustavo
TTITLE3=Você endoideceu meu coração - Roby and Roger
TTITLE4=Tomara que seja - Maurício and Marcelo
TTITLE5=Mulher de amigo meu - Guilherme and Gustavo
TTITLE6=A malvada - Juliano César
TTITLE7=Bombocado - Maurício and Marcelo
TTITLE8=Volta ao começo - Roby e Roger
TTITLE9=Nascemos um pro outro - Fred and Pedrito
TTITLE10=ATudo outra vez - João Pedro and Cristiano
TTITLE11=Jeito Manhoso - Guilherme and Gustavo
TTITLE12=Patativa - Maurício and Marcelo
TTITLE13=Trem Danado - Roby and Roger
EXTD=YEAR: 2002
EXTT0=
EXTT1=
EXTT2=
EXTT3=
EXTT4=
EXTT5=
EXTT6=
EXTT7=
EXTT8=
EXTT9=
EXTT10=
EXTT11=
EXTT12=
EXTT13=
PLAYORDER=
